<?xml version="1.0" encoding="UTF-8" standalone="no"?>
<!DOCTYPE svg PUBLIC "-//W3C//DTD SVG 1.1//EN"
 "http://www.w3.org/Graphics/SVG/1.1/DTD/svg11.dtd">
<!-- Generated by graphviz version 9.0.0 (20230911.1827)
 -->
<!-- Title: G Pages: 1 -->
<svg width="916pt" height="751pt"
 viewBox="0.00 0.00 916.20 751.30" xmlns="http://www.w3.org/2000/svg" xmlns:xlink="http://www.w3.org/1999/xlink">
<g id="graph0" class="graph" transform="scale(1 1) rotate(0) translate(21.6 729.7)">
<title>G</title>
<polygon fill="#111111" stroke="none" points="-21.6,21.6 -21.6,-729.7 894.6,-729.7 894.6,21.6 -21.6,21.6"/>
<!-- src/access.ts -->
<g id="node1" class="node">
<title>src/access.ts</title>
<path fill="none" stroke="#cfffac" d="M183.71,-61.5C183.71,-61.5 100.04,-61.5 100.04,-61.5 95.96,-61.5 91.88,-57.42 91.88,-53.33 91.88,-53.33 91.88,-45.17 91.88,-45.17 91.88,-41.08 95.96,-37 100.04,-37 100.04,-37 183.71,-37 183.71,-37 187.79,-37 191.88,-41.08 191.88,-45.17 191.88,-45.17 191.88,-53.33 191.88,-53.33 191.88,-57.42 187.79,-61.5 183.71,-61.5"/>
<text text-anchor="middle" x="141.88" y="-44.2" font-family="Arial" font-size="14.00" fill="#cfffac">src/access.ts</text>
</g>
<!-- src/app.tsx -->
<g id="node2" class="node">
<title>src/app.tsx</title>
<path fill="none" stroke="#c6c5fe" d="M176.21,-534.5C176.21,-534.5 107.54,-534.5 107.54,-534.5 103.46,-534.5 99.38,-530.42 99.38,-526.33 99.38,-526.33 99.38,-518.17 99.38,-518.17 99.38,-514.08 103.46,-510 107.54,-510 107.54,-510 176.21,-510 176.21,-510 180.29,-510 184.38,-514.08 184.38,-518.17 184.38,-518.17 184.38,-526.33 184.38,-526.33 184.38,-530.42 180.29,-534.5 176.21,-534.5"/>
<text text-anchor="middle" x="141.88" y="-517.2" font-family="Arial" font-size="14.00" fill="#c6c5fe">src/app.tsx</text>
</g>
<!-- src/constants/index.ts -->
<g id="node3" class="node">
<title>src/constants/index.ts</title>
<path fill="none" stroke="#cfffac" d="M513.96,-384.5C513.96,-384.5 377.79,-384.5 377.79,-384.5 373.71,-384.5 369.62,-380.42 369.62,-376.33 369.62,-376.33 369.62,-368.17 369.62,-368.17 369.62,-364.08 373.71,-360 377.79,-360 377.79,-360 513.96,-360 513.96,-360 518.04,-360 522.12,-364.08 522.12,-368.17 522.12,-368.17 522.12,-376.33 522.12,-376.33 522.12,-380.42 518.04,-384.5 513.96,-384.5"/>
<text text-anchor="middle" x="445.88" y="-367.2" font-family="Arial" font-size="14.00" fill="#cfffac">src/constants/index.ts</text>
</g>
<!-- src/app.tsx&#45;&gt;src/constants/index.ts -->
<g id="edge1" class="edge">
<title>src/app.tsx&#45;&gt;src/constants/index.ts</title>
<path fill="none" stroke="#757575" d="M184.82,-521.3C213.69,-519.32 252.35,-514.01 283.75,-500.25 342.46,-474.51 398.03,-421.97 426.01,-392.84"/>
<polygon fill="#757575" stroke="#757575" points="428.43,-395.39 432.75,-385.71 423.34,-390.58 428.43,-395.39"/>
</g>
<!-- src/components/ChartComponent.tsx -->
<g id="node4" class="node">
<title>src/components/ChartComponent.tsx</title>
<path fill="none" stroke="#c6c5fe" d="M563.46,-598.5C563.46,-598.5 328.29,-598.5 328.29,-598.5 324.21,-598.5 320.12,-594.42 320.12,-590.33 320.12,-590.33 320.12,-582.17 320.12,-582.17 320.12,-578.08 324.21,-574 328.29,-574 328.29,-574 563.46,-574 563.46,-574 567.54,-574 571.62,-578.08 571.62,-582.17 571.62,-582.17 571.62,-590.33 571.62,-590.33 571.62,-594.42 567.54,-598.5 563.46,-598.5"/>
<text text-anchor="middle" x="445.88" y="-581.2" font-family="Arial" font-size="14.00" fill="#c6c5fe">src/components/ChartComponent.tsx</text>
</g>
<!-- src/components/charts/BasicLine.ts -->
<g id="node5" class="node">
<title>src/components/charts/BasicLine.ts</title>
<path fill="none" stroke="#cfffac" d="M852.83,-598.5C852.83,-598.5 628.17,-598.5 628.17,-598.5 624.08,-598.5 620,-594.42 620,-590.33 620,-590.33 620,-582.17 620,-582.17 620,-578.08 624.08,-574 628.17,-574 628.17,-574 852.83,-574 852.83,-574 856.92,-574 861,-578.08 861,-582.17 861,-582.17 861,-590.33 861,-590.33 861,-594.42 856.92,-598.5 852.83,-598.5"/>
<text text-anchor="middle" x="740.5" y="-581.2" font-family="Arial" font-size="14.00" fill="#cfffac">src/components/charts/BasicLine.ts</text>
</g>
<!-- src/components/ChartComponent.tsx&#45;&gt;src/components/charts/BasicLine.ts -->
<g id="edge2" class="edge">
<title>src/components/ChartComponent.tsx&#45;&gt;src/components/charts/BasicLine.ts</title>
<path fill="none" stroke="#757575" d="M571.82,-586.25C583.95,-586.25 596.29,-586.25 608.47,-586.25"/>
<polygon fill="#757575" stroke="#757575" points="608.1,-589.75 618.1,-586.25 608.1,-582.75 608.1,-589.75"/>
</g>
<!-- src/utils/chart&#45;render.tsx -->
<g id="node6" class="node">
<title>src/utils/chart&#45;render.tsx</title>
<path fill="none" stroke="#cfffac" d="M815.33,-682.5C815.33,-682.5 665.67,-682.5 665.67,-682.5 661.58,-682.5 657.5,-678.42 657.5,-674.33 657.5,-674.33 657.5,-666.17 657.5,-666.17 657.5,-662.08 661.58,-658 665.67,-658 665.67,-658 815.33,-658 815.33,-658 819.42,-658 823.5,-662.08 823.5,-666.17 823.5,-666.17 823.5,-674.33 823.5,-674.33 823.5,-678.42 819.42,-682.5 815.33,-682.5"/>
<text text-anchor="middle" x="740.5" y="-665.2" font-family="Arial" font-size="14.00" fill="#cfffac">src/utils/chart&#45;render.tsx</text>
</g>
<!-- src/components/ChartComponent.tsx&#45;&gt;src/utils/chart&#45;render.tsx -->
<g id="edge3" class="edge">
<title>src/components/ChartComponent.tsx&#45;&gt;src/utils/chart&#45;render.tsx</title>
<path fill="none" stroke="#757575" d="M531.47,-598.98C545.11,-601.65 559.01,-604.74 572,-608.25 616.7,-620.35 666.25,-639.43 699.78,-653.23"/>
<polygon fill="#757575" stroke="#757575" points="698.1,-656.32 708.68,-656.93 700.79,-649.86 698.1,-656.32"/>
</g>
<!-- src/components/PdfPreview.tsx -->
<g id="node7" class="node">
<title>src/components/PdfPreview.tsx</title>
<path fill="none" stroke="#c6c5fe" d="M545.83,-104.5C545.83,-104.5 345.92,-104.5 345.92,-104.5 341.83,-104.5 337.75,-100.42 337.75,-96.33 337.75,-96.33 337.75,-88.17 337.75,-88.17 337.75,-84.08 341.83,-80 345.92,-80 345.92,-80 545.83,-80 545.83,-80 549.92,-80 554,-84.08 554,-88.17 554,-88.17 554,-96.33 554,-96.33 554,-100.42 549.92,-104.5 545.83,-104.5"/>
<text text-anchor="middle" x="445.88" y="-87.2" font-family="Arial" font-size="14.00" fill="#c6c5fe">src/components/PdfPreview.tsx</text>
</g>
<!-- src/components/PdfPreviewToolbar.tsx -->
<g id="node8" class="node">
<title>src/components/PdfPreviewToolbar.tsx</title>
<path fill="none" stroke="#cfffac" d="M864.83,-104.5C864.83,-104.5 616.17,-104.5 616.17,-104.5 612.08,-104.5 608,-100.42 608,-96.33 608,-96.33 608,-88.17 608,-88.17 608,-84.08 612.08,-80 616.17,-80 616.17,-80 864.83,-80 864.83,-80 868.92,-80 873,-84.08 873,-88.17 873,-88.17 873,-96.33 873,-96.33 873,-100.42 868.92,-104.5 864.83,-104.5"/>
<text text-anchor="middle" x="740.5" y="-87.2" font-family="Arial" font-size="14.00" fill="#cfffac">src/components/PdfPreviewToolbar.tsx</text>
</g>
<!-- src/components/PdfPreview.tsx&#45;&gt;src/components/PdfPreviewToolbar.tsx -->
<g id="edge4" class="edge">
<title>src/components/PdfPreview.tsx&#45;&gt;src/components/PdfPreviewToolbar.tsx</title>
<path fill="none" stroke="#757575" d="M554.18,-92.25C567.88,-92.25 582.08,-92.25 596.25,-92.25"/>
<polygon fill="#757575" stroke="#757575" points="596.07,-95.75 606.07,-92.25 596.07,-88.75 596.07,-95.75"/>
</g>
<!-- src/utils/file&#45;uploader.js -->
<g id="node9" class="node">
<title>src/utils/file&#45;uploader.js</title>
<path fill="none" stroke="#cfffac" d="M812.71,-167.5C812.71,-167.5 668.29,-167.5 668.29,-167.5 664.21,-167.5 660.12,-163.42 660.12,-159.33 660.12,-159.33 660.12,-151.17 660.12,-151.17 660.12,-147.08 664.21,-143 668.29,-143 668.29,-143 812.71,-143 812.71,-143 816.79,-143 820.88,-147.08 820.88,-151.17 820.88,-151.17 820.88,-159.33 820.88,-159.33 820.88,-163.42 816.79,-167.5 812.71,-167.5"/>
<text text-anchor="middle" x="740.5" y="-150.2" font-family="Arial" font-size="14.00" fill="#cfffac">src/utils/file&#45;uploader.js</text>
</g>
<!-- src/components/PdfPreview.tsx&#45;&gt;src/utils/file&#45;uploader.js -->
<g id="edge5" class="edge">
<title>src/components/PdfPreview.tsx&#45;&gt;src/utils/file&#45;uploader.js</title>
<path fill="none" stroke="#757575" d="M523.79,-104.95C539.76,-107.82 556.46,-110.99 572,-114.25 608.17,-121.85 648.4,-131.65 680.37,-139.77"/>
<polygon fill="#757575" stroke="#757575" points="679.29,-143.1 689.85,-142.19 681.03,-136.32 679.29,-143.1"/>
</g>
<!-- src/components/PicturePreview.tsx -->
<g id="node10" class="node">
<title>src/components/PicturePreview.tsx</title>
<path fill="none" stroke="#c6c5fe" d="M556.71,-147.5C556.71,-147.5 335.04,-147.5 335.04,-147.5 330.96,-147.5 326.88,-143.42 326.88,-139.33 326.88,-139.33 326.88,-131.17 326.88,-131.17 326.88,-127.08 330.96,-123 335.04,-123 335.04,-123 556.71,-123 556.71,-123 560.79,-123 564.88,-127.08 564.88,-131.17 564.88,-131.17 564.88,-139.33 564.88,-139.33 564.88,-143.42 560.79,-147.5 556.71,-147.5"/>
<text text-anchor="middle" x="445.88" y="-130.2" font-family="Arial" font-size="14.00" fill="#c6c5fe">src/components/PicturePreview.tsx</text>
</g>
<!-- src/components/PicturePreview.tsx&#45;&gt;src/utils/file&#45;uploader.js -->
<g id="edge6" class="edge">
<title>src/components/PicturePreview.tsx&#45;&gt;src/utils/file&#45;uploader.js</title>
<path fill="none" stroke="#757575" d="M565.05,-143.33C592.95,-145.23 622.27,-147.24 648.73,-149.05"/>
<polygon fill="#757575" stroke="#757575" points="648.17,-152.52 658.38,-149.71 648.64,-145.53 648.17,-152.52"/>
</g>
<!-- src/models/canvasData.ts -->
<g id="node11" class="node">
<title>src/models/canvasData.ts</title>
<path fill="none" stroke="#c6c5fe" d="M223.08,-491.5C223.08,-491.5 60.67,-491.5 60.67,-491.5 56.58,-491.5 52.5,-487.42 52.5,-483.33 52.5,-483.33 52.5,-475.17 52.5,-475.17 52.5,-471.08 56.58,-467 60.67,-467 60.67,-467 223.08,-467 223.08,-467 227.17,-467 231.25,-471.08 231.25,-475.17 231.25,-475.17 231.25,-483.33 231.25,-483.33 231.25,-487.42 227.17,-491.5 223.08,-491.5"/>
<text text-anchor="middle" x="141.88" y="-474.2" font-family="Arial" font-size="14.00" fill="#c6c5fe">src/models/canvasData.ts</text>
</g>
<!-- src/models/canvasData.ts&#45;&gt;src/constants/index.ts -->
<g id="edge7" class="edge">
<title>src/models/canvasData.ts&#45;&gt;src/constants/index.ts</title>
<path fill="none" stroke="#757575" d="M231.49,-469.99C249.06,-466.88 267.19,-462.74 283.75,-457.25 333.05,-440.9 385.41,-410.55 416.61,-390.89"/>
<polygon fill="#757575" stroke="#757575" points="418.15,-394.06 424.69,-385.72 414.38,-388.16 418.15,-394.06"/>
</g>
<!-- src/models/equipmentRecordItem.ts -->
<g id="node12" class="node">
<title>src/models/equipmentRecordItem.ts</title>
<path fill="none" stroke="#c6c5fe" d="M257.58,-448.5C257.58,-448.5 26.17,-448.5 26.17,-448.5 22.08,-448.5 18,-444.42 18,-440.33 18,-440.33 18,-432.17 18,-432.17 18,-428.08 22.08,-424 26.17,-424 26.17,-424 257.58,-424 257.58,-424 261.67,-424 265.75,-428.08 265.75,-432.17 265.75,-432.17 265.75,-440.33 265.75,-440.33 265.75,-444.42 261.67,-448.5 257.58,-448.5"/>
<text text-anchor="middle" x="141.88" y="-431.2" font-family="Arial" font-size="14.00" fill="#c6c5fe">src/models/equipmentRecordItem.ts</text>
</g>
<!-- src/models/equipmentRecordItem.ts&#45;&gt;src/constants/index.ts -->
<g id="edge8" class="edge">
<title>src/models/equipmentRecordItem.ts&#45;&gt;src/constants/index.ts</title>
<path fill="none" stroke="#757575" d="M233.3,-423.5C250.12,-420.74 267.51,-417.63 283.75,-414.25 319.42,-406.84 359.02,-396.54 390.03,-388"/>
<polygon fill="#757575" stroke="#757575" points="390.89,-391.4 399.59,-385.35 389.01,-384.65 390.89,-391.4"/>
</g>
<!-- src/models/equipmentRecordList.ts -->
<g id="node13" class="node">
<title>src/models/equipmentRecordList.ts</title>
<path fill="none" stroke="#cfffac" d="M254.58,-706.5C254.58,-706.5 29.17,-706.5 29.17,-706.5 25.08,-706.5 21,-702.42 21,-698.33 21,-698.33 21,-690.17 21,-690.17 21,-686.08 25.08,-682 29.17,-682 29.17,-682 254.58,-682 254.58,-682 258.67,-682 262.75,-686.08 262.75,-690.17 262.75,-690.17 262.75,-698.33 262.75,-698.33 262.75,-702.42 258.67,-706.5 254.58,-706.5"/>
<text text-anchor="middle" x="141.88" y="-689.2" font-family="Arial" font-size="14.00" fill="#cfffac">src/models/equipmentRecordList.ts</text>
</g>
<!-- src/models/userToken.ts -->
<g id="node14" class="node">
<title>src/models/userToken.ts</title>
<path fill="none" stroke="#c6c5fe" d="M220.08,-405.5C220.08,-405.5 63.67,-405.5 63.67,-405.5 59.58,-405.5 55.5,-401.42 55.5,-397.33 55.5,-397.33 55.5,-389.17 55.5,-389.17 55.5,-385.08 59.58,-381 63.67,-381 63.67,-381 220.08,-381 220.08,-381 224.17,-381 228.25,-385.08 228.25,-389.17 228.25,-389.17 228.25,-397.33 228.25,-397.33 228.25,-401.42 224.17,-405.5 220.08,-405.5"/>
<text text-anchor="middle" x="141.88" y="-388.2" font-family="Arial" font-size="14.00" fill="#c6c5fe">src/models/userToken.ts</text>
</g>
<!-- src/models/userToken.ts&#45;&gt;src/constants/index.ts -->
<g id="edge9" class="edge">
<title>src/models/userToken.ts&#45;&gt;src/constants/index.ts</title>
<path fill="none" stroke="#757575" d="M228.61,-387.29C269.1,-384.47 317.33,-381.12 357.97,-378.29"/>
<polygon fill="#757575" stroke="#757575" points="357.97,-381.8 367.71,-377.62 357.49,-374.82 357.97,-381.8"/>
</g>
<!-- src/pages/DataAnalysis/index.less -->
<g id="node15" class="node">
<title>src/pages/DataAnalysis/index.less</title>
<path fill="none" stroke="#cfffac" d="M553.71,-684.5C553.71,-684.5 338.04,-684.5 338.04,-684.5 333.96,-684.5 329.88,-680.42 329.88,-676.33 329.88,-676.33 329.88,-668.17 329.88,-668.17 329.88,-664.08 333.96,-660 338.04,-660 338.04,-660 553.71,-660 553.71,-660 557.79,-660 561.88,-664.08 561.88,-668.17 561.88,-668.17 561.88,-676.33 561.88,-676.33 561.88,-680.42 557.79,-684.5 553.71,-684.5"/>
<text text-anchor="middle" x="445.88" y="-667.2" font-family="Arial" font-size="14.00" fill="#cfffac">src/pages/DataAnalysis/index.less</text>
</g>
<!-- src/pages/DataAnalysis/index.tsx -->
<g id="node16" class="node">
<title>src/pages/DataAnalysis/index.tsx</title>
<path fill="none" stroke="#c6c5fe" d="M245.58,-663.5C245.58,-663.5 38.17,-663.5 38.17,-663.5 34.08,-663.5 30,-659.42 30,-655.33 30,-655.33 30,-647.17 30,-647.17 30,-643.08 34.08,-639 38.17,-639 38.17,-639 245.58,-639 245.58,-639 249.67,-639 253.75,-643.08 253.75,-647.17 253.75,-647.17 253.75,-655.33 253.75,-655.33 253.75,-659.42 249.67,-663.5 245.58,-663.5"/>
<text text-anchor="middle" x="141.88" y="-646.2" font-family="Arial" font-size="14.00" fill="#c6c5fe">src/pages/DataAnalysis/index.tsx</text>
</g>
<!-- src/pages/DataAnalysis/index.tsx&#45;&gt;src/constants/index.ts -->
<g id="edge11" class="edge">
<title>src/pages/DataAnalysis/index.tsx&#45;&gt;src/constants/index.ts</title>
<path fill="none" stroke="#757575" d="M253.93,-643.87C264.54,-640.29 274.7,-635.53 283.75,-629.25 310.56,-610.64 302.86,-593.18 319.75,-565.25 357.92,-502.11 406.17,-429.58 430.07,-394.1"/>
<polygon fill="#757575" stroke="#757575" points="432.86,-396.22 435.55,-385.98 427.06,-392.31 432.86,-396.22"/>
</g>
<!-- src/pages/DataAnalysis/index.tsx&#45;&gt;src/components/ChartComponent.tsx -->
<g id="edge10" class="edge">
<title>src/pages/DataAnalysis/index.tsx&#45;&gt;src/components/ChartComponent.tsx</title>
<path fill="none" stroke="#757575" d="M251.21,-638.57C262.34,-636.01 273.37,-632.94 283.75,-629.25 301.2,-623.05 302.36,-614.62 319.75,-608.25 326.34,-605.84 333.23,-603.68 340.24,-601.76"/>
<polygon fill="#757575" stroke="#757575" points="341.03,-605.17 349.85,-599.3 339.3,-598.39 341.03,-605.17"/>
</g>
<!-- src/pages/DataAnalysis/index.tsx&#45;&gt;src/utils/chart&#45;render.tsx -->
<g id="edge13" class="edge">
<title>src/pages/DataAnalysis/index.tsx&#45;&gt;src/utils/chart&#45;render.tsx</title>
<path fill="none" stroke="#757575" d="M250.38,-663.99C261.78,-666.54 273.1,-669.59 283.75,-673.25 301.06,-679.2 302.03,-688.66 319.75,-693.25 428.28,-721.37 460.15,-700.89 572,-693.25 598.02,-691.47 626.16,-688.16 651.8,-684.59"/>
<polygon fill="#757575" stroke="#757575" points="652.11,-688.08 661.51,-683.2 651.12,-681.15 652.11,-688.08"/>
</g>
<!-- src/pages/DataAnalysis/index.tsx&#45;&gt;src/pages/DataAnalysis/index.less -->
<g id="edge12" class="edge">
<title>src/pages/DataAnalysis/index.tsx&#45;&gt;src/pages/DataAnalysis/index.less</title>
<path fill="none" stroke="#757575" d="M254.04,-658.98C274.86,-660.43 296.76,-661.95 318,-663.43"/>
<polygon fill="#757575" stroke="#757575" points="317.66,-666.91 327.88,-664.11 318.14,-659.93 317.66,-666.91"/>
</g>
<!-- src/utils/file&#45;saver.ts -->
<g id="node17" class="node">
<title>src/utils/file&#45;saver.ts</title>
<path fill="none" stroke="#cfffac" d="M507.96,-641.5C507.96,-641.5 383.79,-641.5 383.79,-641.5 379.71,-641.5 375.62,-637.42 375.62,-633.33 375.62,-633.33 375.62,-625.17 375.62,-625.17 375.62,-621.08 379.71,-617 383.79,-617 383.79,-617 507.96,-617 507.96,-617 512.04,-617 516.12,-621.08 516.12,-625.17 516.12,-625.17 516.12,-633.33 516.12,-633.33 516.12,-637.42 512.04,-641.5 507.96,-641.5"/>
<text text-anchor="middle" x="445.88" y="-624.2" font-family="Arial" font-size="14.00" fill="#cfffac">src/utils/file&#45;saver.ts</text>
</g>
<!-- src/pages/DataAnalysis/index.tsx&#45;&gt;src/utils/file&#45;saver.ts -->
<g id="edge14" class="edge">
<title>src/pages/DataAnalysis/index.tsx&#45;&gt;src/utils/file&#45;saver.ts</title>
<path fill="none" stroke="#757575" d="M254.04,-643.15C290.46,-640.5 330.2,-637.6 363.95,-635.15"/>
<polygon fill="#757575" stroke="#757575" points="363.92,-638.66 373.64,-634.44 363.41,-631.68 363.92,-638.66"/>
</g>
<!-- src/pages/Equipment/Detail/index.tsx -->
<g id="node18" class="node">
<title>src/pages/Equipment/Detail/index.tsx</title>
<path fill="none" stroke="#c6c5fe" d="M258.71,-233.5C258.71,-233.5 25.04,-233.5 25.04,-233.5 20.96,-233.5 16.88,-229.42 16.88,-225.33 16.88,-225.33 16.88,-217.17 16.88,-217.17 16.88,-213.08 20.96,-209 25.04,-209 25.04,-209 258.71,-209 258.71,-209 262.79,-209 266.88,-213.08 266.88,-217.17 266.88,-217.17 266.88,-225.33 266.88,-225.33 266.88,-229.42 262.79,-233.5 258.71,-233.5"/>
<text text-anchor="middle" x="141.88" y="-216.2" font-family="Arial" font-size="14.00" fill="#c6c5fe">src/pages/Equipment/Detail/index.tsx</text>
</g>
<!-- src/pages/Equipment/Detail/index.tsx&#45;&gt;src/constants/index.ts -->
<g id="edge15" class="edge">
<title>src/pages/Equipment/Detail/index.tsx&#45;&gt;src/constants/index.ts</title>
<path fill="none" stroke="#757575" d="M267.36,-233.69C273.12,-236.4 278.62,-239.57 283.75,-243.25 311.85,-263.42 294.88,-288.21 319.75,-312.25 339.89,-331.72 367.55,-345.89 391.75,-355.54"/>
<polygon fill="#757575" stroke="#757575" points="390.22,-358.71 400.81,-359 392.71,-352.17 390.22,-358.71"/>
</g>
<!-- src/pages/Equipment/Detail/index.tsx&#45;&gt;src/utils/file&#45;uploader.js -->
<g id="edge16" class="edge">
<title>src/pages/Equipment/Detail/index.tsx&#45;&gt;src/utils/file&#45;uploader.js</title>
<path fill="none" stroke="#757575" d="M267.28,-216.67C353.19,-212.43 469.92,-204.54 572,-190.25 606.85,-185.37 645.31,-177.52 676.58,-170.48"/>
<polygon fill="#757575" stroke="#757575" points="677.31,-173.9 686.28,-168.27 675.75,-167.08 677.31,-173.9"/>
</g>
<!-- src/pages/Equipment/index.tsx -->
<g id="node19" class="node">
<title>src/pages/Equipment/index.tsx</title>
<path fill="none" stroke="#c6c5fe" d="M238.83,-362.5C238.83,-362.5 44.92,-362.5 44.92,-362.5 40.83,-362.5 36.75,-358.42 36.75,-354.33 36.75,-354.33 36.75,-346.17 36.75,-346.17 36.75,-342.08 40.83,-338 44.92,-338 44.92,-338 238.83,-338 238.83,-338 242.92,-338 247,-342.08 247,-346.17 247,-346.17 247,-354.33 247,-354.33 247,-358.42 242.92,-362.5 238.83,-362.5"/>
<text text-anchor="middle" x="141.88" y="-345.2" font-family="Arial" font-size="14.00" fill="#c6c5fe">src/pages/Equipment/index.tsx</text>
</g>
<!-- src/pages/Equipment/index.tsx&#45;&gt;src/constants/index.ts -->
<g id="edge17" class="edge">
<title>src/pages/Equipment/index.tsx&#45;&gt;src/constants/index.ts</title>
<path fill="none" stroke="#757575" d="M247.23,-357.85C283.54,-360.5 323.83,-363.43 358.52,-365.96"/>
<polygon fill="#757575" stroke="#757575" points="357.83,-369.42 368.06,-366.65 358.34,-362.44 357.83,-369.42"/>
</g>
<!-- src/pages/Home/index.tsx -->
<g id="node20" class="node">
<title>src/pages/Home/index.tsx</title>
<path fill="none" stroke="#c6c5fe" d="M223.83,-319.5C223.83,-319.5 59.92,-319.5 59.92,-319.5 55.83,-319.5 51.75,-315.42 51.75,-311.33 51.75,-311.33 51.75,-303.17 51.75,-303.17 51.75,-299.08 55.83,-295 59.92,-295 59.92,-295 223.83,-295 223.83,-295 227.92,-295 232,-299.08 232,-303.17 232,-303.17 232,-311.33 232,-311.33 232,-315.42 227.92,-319.5 223.83,-319.5"/>
<text text-anchor="middle" x="141.88" y="-302.2" font-family="Arial" font-size="14.00" fill="#c6c5fe">src/pages/Home/index.tsx</text>
</g>
<!-- src/pages/Home/index.tsx&#45;&gt;src/constants/index.ts -->
<g id="edge18" class="edge">
<title>src/pages/Home/index.tsx&#45;&gt;src/constants/index.ts</title>
<path fill="none" stroke="#757575" d="M232.19,-319.74C249.36,-322.55 267.16,-325.75 283.75,-329.25 319.83,-336.86 359.89,-347.54 391.04,-356.35"/>
<polygon fill="#757575" stroke="#757575" points="390.06,-359.71 400.63,-359.09 391.98,-352.98 390.06,-359.71"/>
</g>
<!-- src/pages/Login/index.less -->
<g id="node21" class="node">
<title>src/pages/Login/index.less</title>
<path fill="none" stroke="#cfffac" d="M530.46,-303.5C530.46,-303.5 361.29,-303.5 361.29,-303.5 357.21,-303.5 353.12,-299.42 353.12,-295.33 353.12,-295.33 353.12,-287.17 353.12,-287.17 353.12,-283.08 357.21,-279 361.29,-279 361.29,-279 530.46,-279 530.46,-279 534.54,-279 538.62,-283.08 538.62,-287.17 538.62,-287.17 538.62,-295.33 538.62,-295.33 538.62,-299.42 534.54,-303.5 530.46,-303.5"/>
<text text-anchor="middle" x="445.88" y="-286.2" font-family="Arial" font-size="14.00" fill="#cfffac">src/pages/Login/index.less</text>
</g>
<!-- src/pages/Login/index.tsx -->
<g id="node22" class="node">
<title>src/pages/Login/index.tsx</title>
<path fill="none" stroke="#c6c5fe" d="M222.33,-276.5C222.33,-276.5 61.42,-276.5 61.42,-276.5 57.33,-276.5 53.25,-272.42 53.25,-268.33 53.25,-268.33 53.25,-260.17 53.25,-260.17 53.25,-256.08 57.33,-252 61.42,-252 61.42,-252 222.33,-252 222.33,-252 226.42,-252 230.5,-256.08 230.5,-260.17 230.5,-260.17 230.5,-268.33 230.5,-268.33 230.5,-272.42 226.42,-276.5 222.33,-276.5"/>
<text text-anchor="middle" x="141.88" y="-259.2" font-family="Arial" font-size="14.00" fill="#c6c5fe">src/pages/Login/index.tsx</text>
</g>
<!-- src/pages/Login/index.tsx&#45;&gt;src/constants/index.ts -->
<g id="edge19" class="edge">
<title>src/pages/Login/index.tsx&#45;&gt;src/constants/index.ts</title>
<path fill="none" stroke="#757575" d="M230.67,-271.43C248.66,-274.7 267.15,-279.42 283.75,-286.25 302,-293.76 302.78,-302.17 319.75,-312.25 347.02,-328.46 379.35,-343.87 404.31,-355.01"/>
<polygon fill="#757575" stroke="#757575" points="402.57,-358.07 413.13,-358.91 405.4,-351.67 402.57,-358.07"/>
</g>
<!-- src/pages/Login/index.tsx&#45;&gt;src/pages/Login/index.less -->
<g id="edge20" class="edge">
<title>src/pages/Login/index.tsx&#45;&gt;src/pages/Login/index.less</title>
<path fill="none" stroke="#757575" d="M230.63,-272.1C265.35,-275.2 305.52,-278.79 341.63,-282.02"/>
<polygon fill="#757575" stroke="#757575" points="340.91,-285.47 351.18,-282.87 341.54,-278.5 340.91,-285.47"/>
</g>
<!-- src/pages/PaymentMonitor/Detail/index.tsx -->
<g id="node23" class="node">
<title>src/pages/PaymentMonitor/Detail/index.tsx</title>
<path fill="none" stroke="#c6c5fe" d="M275.58,-147.5C275.58,-147.5 8.17,-147.5 8.17,-147.5 4.08,-147.5 0,-143.42 0,-139.33 0,-139.33 0,-131.17 0,-131.17 0,-127.08 4.08,-123 8.17,-123 8.17,-123 275.58,-123 275.58,-123 279.67,-123 283.75,-127.08 283.75,-131.17 283.75,-131.17 283.75,-139.33 283.75,-139.33 283.75,-143.42 279.67,-147.5 275.58,-147.5"/>
<text text-anchor="middle" x="141.88" y="-130.2" font-family="Arial" font-size="14.00" fill="#c6c5fe">src/pages/PaymentMonitor/Detail/index.tsx</text>
</g>
<!-- src/pages/PaymentMonitor/Detail/index.tsx&#45;&gt;src/constants/index.ts -->
<g id="edge23" class="edge">
<title>src/pages/PaymentMonitor/Detail/index.tsx&#45;&gt;src/constants/index.ts</title>
<path fill="none" stroke="#757575" d="M271.44,-147.88C275.81,-150.61 279.94,-153.71 283.75,-157.25 335.56,-205.39 275.5,-257.08 319.75,-312.25 336.02,-332.54 360.83,-346.39 384.07,-355.62"/>
<polygon fill="#757575" stroke="#757575" points="382.59,-358.8 393.18,-359.01 385.03,-352.24 382.59,-358.8"/>
</g>
<!-- src/pages/PaymentMonitor/Detail/index.tsx&#45;&gt;src/components/PdfPreview.tsx -->
<g id="edge21" class="edge">
<title>src/pages/PaymentMonitor/Detail/index.tsx&#45;&gt;src/components/PdfPreview.tsx</title>
<path fill="none" stroke="#757575" d="M232.26,-122.52C267.49,-117.51 308.12,-111.72 344.36,-106.56"/>
<polygon fill="#757575" stroke="#757575" points="344.55,-110.07 353.96,-105.19 343.57,-103.14 344.55,-110.07"/>
</g>
<!-- src/pages/PaymentMonitor/Detail/index.tsx&#45;&gt;src/utils/file&#45;uploader.js -->
<g id="edge24" class="edge">
<title>src/pages/PaymentMonitor/Detail/index.tsx&#45;&gt;src/utils/file&#45;uploader.js</title>
<path fill="none" stroke="#757575" d="M232.67,-147.99C260.52,-151.39 291.35,-154.57 319.75,-156.25 431.67,-162.87 459.89,-156.58 572,-156.25 596.84,-156.18 623.75,-156.04 648.59,-155.89"/>
<polygon fill="#757575" stroke="#757575" points="648.34,-159.39 658.32,-155.83 648.3,-152.39 648.34,-159.39"/>
</g>
<!-- src/pages/PaymentMonitor/Detail/index.tsx&#45;&gt;src/components/PicturePreview.tsx -->
<g id="edge22" class="edge">
<title>src/pages/PaymentMonitor/Detail/index.tsx&#45;&gt;src/components/PicturePreview.tsx</title>
<path fill="none" stroke="#757575" d="M284.15,-135.25C294.63,-135.25 305.18,-135.25 315.59,-135.25"/>
<polygon fill="#757575" stroke="#757575" points="315.3,-138.75 325.3,-135.25 315.3,-131.75 315.3,-138.75"/>
</g>
<!-- src/pages/PaymentMonitor/index.less -->
<g id="node24" class="node">
<title>src/pages/PaymentMonitor/index.less</title>
<path fill="none" stroke="#cfffac" d="M563.83,-24.5C563.83,-24.5 327.92,-24.5 327.92,-24.5 323.83,-24.5 319.75,-20.42 319.75,-16.33 319.75,-16.33 319.75,-8.17 319.75,-8.17 319.75,-4.08 323.83,0 327.92,0 327.92,0 563.83,0 563.83,0 567.92,0 572,-4.08 572,-8.17 572,-8.17 572,-16.33 572,-16.33 572,-20.42 567.92,-24.5 563.83,-24.5"/>
<text text-anchor="middle" x="445.88" y="-7.2" font-family="Arial" font-size="14.00" fill="#cfffac">src/pages/PaymentMonitor/index.less</text>
</g>
<!-- src/pages/PaymentMonitor/index.tsx -->
<g id="node25" class="node">
<title>src/pages/PaymentMonitor/index.tsx</title>
<path fill="none" stroke="#c6c5fe" d="M255.71,-104.5C255.71,-104.5 28.04,-104.5 28.04,-104.5 23.96,-104.5 19.88,-100.42 19.88,-96.33 19.88,-96.33 19.88,-88.17 19.88,-88.17 19.88,-84.08 23.96,-80 28.04,-80 28.04,-80 255.71,-80 255.71,-80 259.79,-80 263.88,-84.08 263.88,-88.17 263.88,-88.17 263.88,-96.33 263.88,-96.33 263.88,-100.42 259.79,-104.5 255.71,-104.5"/>
<text text-anchor="middle" x="141.88" y="-87.2" font-family="Arial" font-size="14.00" fill="#c6c5fe">src/pages/PaymentMonitor/index.tsx</text>
</g>
<!-- src/pages/PaymentMonitor/index.tsx&#45;&gt;src/constants/index.ts -->
<g id="edge27" class="edge">
<title>src/pages/PaymentMonitor/index.tsx&#45;&gt;src/constants/index.ts</title>
<path fill="none" stroke="#757575" d="M264.35,-100.43C271.42,-104.09 277.99,-108.63 283.75,-114.25 347.78,-176.7 265.5,-241.14 319.75,-312.25 335.27,-332.59 359.44,-346.38 382.42,-355.55"/>
<polygon fill="#757575" stroke="#757575" points="381.19,-358.83 391.79,-359.04 383.64,-352.27 381.19,-358.83"/>
</g>
<!-- src/pages/PaymentMonitor/index.tsx&#45;&gt;src/components/PdfPreview.tsx -->
<g id="edge25" class="edge">
<title>src/pages/PaymentMonitor/index.tsx&#45;&gt;src/components/PdfPreview.tsx</title>
<path fill="none" stroke="#757575" d="M263.97,-92.25C284.46,-92.25 305.72,-92.25 326.15,-92.25"/>
<polygon fill="#757575" stroke="#757575" points="325.89,-95.75 335.89,-92.25 325.89,-88.75 325.89,-95.75"/>
</g>
<!-- src/pages/PaymentMonitor/index.tsx&#45;&gt;src/utils/file&#45;uploader.js -->
<g id="edge29" class="edge">
<title>src/pages/PaymentMonitor/index.tsx&#45;&gt;src/utils/file&#45;uploader.js</title>
<path fill="none" stroke="#757575" d="M223.57,-79.54C330.36,-64.21 512.11,-43.71 572,-71.25 594.34,-81.52 587.51,-99.66 608,-113.25 625.02,-124.54 645.29,-132.97 664.76,-139.19"/>
<polygon fill="#757575" stroke="#757575" points="663.74,-142.54 674.32,-142.08 665.76,-135.84 663.74,-142.54"/>
</g>
<!-- src/pages/PaymentMonitor/index.tsx&#45;&gt;src/components/PicturePreview.tsx -->
<g id="edge26" class="edge">
<title>src/pages/PaymentMonitor/index.tsx&#45;&gt;src/components/PicturePreview.tsx</title>
<path fill="none" stroke="#757575" d="M232.26,-104.98C267.49,-109.99 308.12,-115.78 344.36,-120.94"/>
<polygon fill="#757575" stroke="#757575" points="343.57,-124.36 353.96,-122.31 344.55,-117.43 343.57,-124.36"/>
</g>
<!-- src/pages/PaymentMonitor/index.tsx&#45;&gt;src/pages/PaymentMonitor/index.less -->
<g id="edge28" class="edge">
<title>src/pages/PaymentMonitor/index.tsx&#45;&gt;src/pages/PaymentMonitor/index.less</title>
<path fill="none" stroke="#757575" d="M259.42,-79.52C267.83,-76.95 276.03,-73.89 283.75,-70.25 303.11,-61.12 300.62,-47.86 319.75,-38.25 327.49,-34.36 335.77,-31.05 344.26,-28.24"/>
<polygon fill="#757575" stroke="#757575" points="345.1,-31.64 353.64,-25.38 343.06,-24.95 345.1,-31.64"/>
</g>
<!-- src/pages/PaymentRecord/index.tsx -->
<g id="node26" class="node">
<title>src/pages/PaymentRecord/index.tsx</title>
<path fill="none" stroke="#c6c5fe" d="M256.08,-190.5C256.08,-190.5 27.67,-190.5 27.67,-190.5 23.58,-190.5 19.5,-186.42 19.5,-182.33 19.5,-182.33 19.5,-174.17 19.5,-174.17 19.5,-170.08 23.58,-166 27.67,-166 27.67,-166 256.08,-166 256.08,-166 260.17,-166 264.25,-170.08 264.25,-174.17 264.25,-174.17 264.25,-182.33 264.25,-182.33 264.25,-186.42 260.17,-190.5 256.08,-190.5"/>
<text text-anchor="middle" x="141.88" y="-173.2" font-family="Arial" font-size="14.00" fill="#c6c5fe">src/pages/PaymentRecord/index.tsx</text>
</g>
<!-- src/pages/PaymentRecord/index.tsx&#45;&gt;src/constants/index.ts -->
<g id="edge32" class="edge">
<title>src/pages/PaymentRecord/index.tsx&#45;&gt;src/constants/index.ts</title>
<path fill="none" stroke="#757575" d="M264.54,-187.8C271.43,-191.16 277.92,-195.26 283.75,-200.25 323.49,-234.23 285.38,-272.85 319.75,-312.25 337.26,-332.32 362.99,-346.25 386.56,-355.59"/>
<polygon fill="#757575" stroke="#757575" points="385.2,-358.82 395.79,-359.04 387.65,-352.26 385.2,-358.82"/>
</g>
<!-- src/pages/PaymentRecord/index.tsx&#45;&gt;src/components/PdfPreview.tsx -->
<g id="edge30" class="edge">
<title>src/pages/PaymentRecord/index.tsx&#45;&gt;src/components/PdfPreview.tsx</title>
<path fill="none" stroke="#757575" d="M263.23,-165.54C270.36,-162.94 277.26,-159.87 283.75,-156.25 305.22,-144.28 298.39,-126.43 319.75,-114.25 322.96,-112.42 326.28,-110.74 329.7,-109.19"/>
<polygon fill="#757575" stroke="#757575" points="330.82,-112.51 338.76,-105.5 328.18,-106.02 330.82,-112.51"/>
</g>
<!-- src/pages/PaymentRecord/index.tsx&#45;&gt;src/utils/file&#45;uploader.js -->
<g id="edge33" class="edge">
<title>src/pages/PaymentRecord/index.tsx&#45;&gt;src/utils/file&#45;uploader.js</title>
<path fill="none" stroke="#757575" d="M264.59,-179.37C350.56,-179.47 468.42,-178.22 572,-172.25 596.93,-170.81 623.87,-168.44 648.7,-165.92"/>
<polygon fill="#757575" stroke="#757575" points="648.86,-169.42 658.44,-164.91 648.14,-162.46 648.86,-169.42"/>
</g>
<!-- src/pages/PaymentRecord/index.tsx&#45;&gt;src/components/PicturePreview.tsx -->
<g id="edge31" class="edge">
<title>src/pages/PaymentRecord/index.tsx&#45;&gt;src/components/PicturePreview.tsx</title>
<path fill="none" stroke="#757575" d="M232.26,-165.52C267.49,-160.51 308.12,-154.72 344.36,-149.56"/>
<polygon fill="#757575" stroke="#757575" points="344.55,-153.07 353.96,-148.19 343.57,-146.14 344.55,-153.07"/>
</g>
<!-- src/pages/ResetPassword/index.tsx -->
<g id="node27" class="node">
<title>src/pages/ResetPassword/index.tsx</title>
<path fill="none" stroke="#c6c5fe" d="M255.33,-620.5C255.33,-620.5 28.42,-620.5 28.42,-620.5 24.33,-620.5 20.25,-616.42 20.25,-612.33 20.25,-612.33 20.25,-604.17 20.25,-604.17 20.25,-600.08 24.33,-596 28.42,-596 28.42,-596 255.33,-596 255.33,-596 259.42,-596 263.5,-600.08 263.5,-604.17 263.5,-604.17 263.5,-612.33 263.5,-612.33 263.5,-616.42 259.42,-620.5 255.33,-620.5"/>
<text text-anchor="middle" x="141.88" y="-603.2" font-family="Arial" font-size="14.00" fill="#c6c5fe">src/pages/ResetPassword/index.tsx</text>
</g>
<!-- src/pages/ResetPassword/index.tsx&#45;&gt;src/constants/index.ts -->
<g id="edge34" class="edge">
<title>src/pages/ResetPassword/index.tsx&#45;&gt;src/constants/index.ts</title>
<path fill="none" stroke="#757575" d="M263.86,-595.88C270.8,-593.19 277.49,-590.01 283.75,-586.25 361.35,-539.72 414.07,-440.3 434.9,-395.27"/>
<polygon fill="#757575" stroke="#757575" points="438.07,-396.75 438.99,-386.2 431.69,-393.87 438.07,-396.75"/>
</g>
<!-- src/pages/UserList/index.tsx -->
<g id="node28" class="node">
<title>src/pages/UserList/index.tsx</title>
<path fill="none" stroke="#c6c5fe" d="M230.96,-577.5C230.96,-577.5 52.79,-577.5 52.79,-577.5 48.71,-577.5 44.62,-573.42 44.62,-569.33 44.62,-569.33 44.62,-561.17 44.62,-561.17 44.62,-557.08 48.71,-553 52.79,-553 52.79,-553 230.96,-553 230.96,-553 235.04,-553 239.12,-557.08 239.12,-561.17 239.12,-561.17 239.12,-569.33 239.12,-569.33 239.12,-573.42 235.04,-577.5 230.96,-577.5"/>
<text text-anchor="middle" x="141.88" y="-560.2" font-family="Arial" font-size="14.00" fill="#c6c5fe">src/pages/UserList/index.tsx</text>
</g>
<!-- src/pages/UserList/index.tsx&#45;&gt;src/constants/index.ts -->
<g id="edge35" class="edge">
<title>src/pages/UserList/index.tsx&#45;&gt;src/constants/index.ts</title>
<path fill="none" stroke="#757575" d="M239.57,-558.82C254.91,-555.39 270.17,-550.41 283.75,-543.25 351.7,-507.44 406.86,-431.8 431.28,-394.29"/>
<polygon fill="#757575" stroke="#757575" points="434.1,-396.38 436.53,-386.06 428.2,-392.61 434.1,-396.38"/>
</g>
</g>
</svg>
